<?xml version="1.0" encoding="UTF-8"?>
<svg id="Capa_1" data-name="Capa 1" xmlns="http://www.w3.org/2000/svg" viewBox="0 0 2104.59 753.66">
  <defs>
    <style>
      .cls-1 {
        fill: #49403a;
      }
    </style>
  </defs>
  <g>
    <path class="cls-1" d="M379.21,425.71s6.73,214.23-189.59,327.95C-6.7,639.94.03,425.71.03,425.71L0,49.14h54.77l12.52,376.57h244.65l12.52-376.57h54.77l-.03,376.57Z"/>
    <rect class="cls-1" x="260.47" y="38.9" width="10.12" height="350.47" transform="translate(531.07 428.27) rotate(-180)"/>
    <rect class="cls-1" x="221.86" y="19.53" width="10.12" height="369.84" transform="translate(453.85 408.91) rotate(-180)"/>
    <rect class="cls-1" x="189.3" y="0" width="5.06" height="389.37" transform="translate(383.65 389.37) rotate(-180)"/>
    <rect class="cls-1" x="108" y="38.9" width="10.12" height="350.47"/>
    <rect class="cls-1" x="146.61" y="19.53" width="10.12" height="369.84"/>
    <rect class="cls-1" x="184.23" y="0" width="5.06" height="389.37"/>
  </g>
  <g>
    <path class="cls-1" d="M538.37,311.77c-10.3-8.52-16.29-20.66-17.97-36.41h25.65c1.29,9.94,4.73,17.3,10.3,22.08,5.57,4.78,13.28,7.17,23.12,7.17,9.33,0,16.39-1.65,21.18-4.94,4.79-3.29,7.19-7.46,7.19-12.49,0-1.55-.23-3-.68-4.36-.46-1.36-1.07-2.61-1.85-3.78-.78-1.16-1.75-2.26-2.92-3.29-1.17-1.03-2.46-1.97-3.89-2.81-1.43-.84-2.95-1.61-4.57-2.32-1.62-.71-3.37-1.39-5.25-2.03-1.88-.65-3.82-1.29-5.83-1.94-2.01-.64-4.08-1.23-6.22-1.74-2.14-.51-4.31-1.1-6.51-1.74-2.33-.64-4.66-1.29-7-1.94-2.33-.64-4.63-1.36-6.9-2.13-2.27-.77-4.5-1.58-6.7-2.42-2.2-.84-4.34-1.74-6.41-2.71-2.07-.97-4.02-2.06-5.83-3.29-1.82-1.23-3.53-2.55-5.15-3.97-1.62-1.42-3.08-2.97-4.37-4.65-1.3-1.68-2.4-3.52-3.3-5.52-.91-2-1.59-4.13-2.04-6.39-.46-2.26-.68-4.74-.68-7.46,0-11.36,4.6-20.59,13.8-27.69,9.2-7.1,21.57-10.65,37.11-10.65,16.97,0,30.67,4.13,41.1,12.4,10.43,8.26,16.48,20.01,18.17,35.25h-24.48c-1.43-8.91-5.09-15.75-10.98-20.53-5.9-4.78-13.57-7.17-23.03-7.17-8.68,0-15.16,1.55-19.43,4.65-4.27,3.1-6.41,6.97-6.41,11.62,0,1.68.26,3.2.78,4.55.52,1.36,1.23,2.61,2.14,3.78.9,1.16,2.01,2.26,3.3,3.29,1.29,1.04,2.75,1.97,4.37,2.81,1.62.84,3.37,1.62,5.25,2.32,1.88.71,3.85,1.42,5.93,2.13,2.07.71,4.24,1.39,6.51,2.03,2.26.65,4.57,1.29,6.9,1.94,2.33.65,4.73,1.29,7.19,1.94,2.46.65,4.86,1.36,7.19,2.13,2.33.77,4.66,1.62,7,2.52,2.33.9,4.57,1.87,6.7,2.9,2.14,1.04,4.18,2.16,6.12,3.39,1.94,1.23,3.76,2.55,5.44,3.97,1.68,1.42,3.21,3,4.57,4.75,1.36,1.74,2.53,3.65,3.5,5.71.97,2.07,1.72,4.29,2.23,6.68.52,2.39.78,4.94.78,7.65,0,11.75-4.73,21.27-14.18,28.57-9.46,7.3-22.41,10.94-38.86,10.94-17.75,0-31.77-4.26-42.07-12.78Z"/>
    <path class="cls-1" d="M655.43,310.12c-9.59-9.75-14.38-23.21-14.38-40.38,0-5.04.42-9.71,1.26-14.04.84-4.32,2.04-8.36,3.59-12.1,1.55-3.74,3.5-7.17,5.83-10.26,2.33-3.1,4.96-5.81,7.87-8.13,2.91-2.32,6.09-4.29,9.52-5.91,3.43-1.61,7.16-2.84,11.17-3.68,4.01-.84,8.22-1.26,12.63-1.26s8.61.42,12.63,1.26c4.01.84,7.77,2.07,11.27,3.68,3.5,1.62,6.7,3.58,9.62,5.91,2.92,2.32,5.54,5.04,7.87,8.13,2.33,3.1,4.27,6.52,5.83,10.26,1.55,3.75,2.75,7.78,3.59,12.1.84,4.33,1.26,9.01,1.26,14.04,0,17.17-4.79,30.63-14.38,40.38-9.59,9.75-22.15,14.62-37.7,14.62s-27.92-4.87-37.5-14.62ZM712.66,297.15c4.99-6.26,7.48-15.46,7.48-27.6s-2.5-21.17-7.48-27.5c-4.99-6.32-11.56-9.49-19.72-9.49s-14.7,3.17-19.63,9.49c-4.92,6.33-7.38,15.49-7.38,27.5s2.46,21.34,7.38,27.6c4.92,6.26,11.46,9.39,19.63,9.39s14.73-3.13,19.72-9.39Z"/>
    <path class="cls-1" d="M766.77,310.22c-9.46-9.68-14.18-23.17-14.18-40.48,0-5.04.42-9.71,1.26-14.04.84-4.32,2.04-8.36,3.59-12.1,1.55-3.74,3.46-7.17,5.73-10.26,2.26-3.1,4.82-5.81,7.67-8.13,2.85-2.32,6.02-4.29,9.52-5.91,3.5-1.61,7.19-2.84,11.08-3.68,3.89-.84,8.03-1.26,12.44-1.26,13.34,0,24.51,3.91,33.52,11.72,9,7.81,14.35,18.82,16.03,33.02h-23.71c-1.3-8.65-4.25-15.23-8.84-19.75-4.6-4.52-10.27-6.78-17-6.78-7.9,0-14.28,3.17-19.14,9.49-4.86,6.33-7.29,15.49-7.29,27.5s2.43,21.34,7.29,27.6c4.86,6.26,11.24,9.39,19.14,9.39,7,0,12.79-2.39,17.39-7.17,4.6-4.78,7.48-11.75,8.65-20.92h23.51c-1.43,14.59-6.61,25.95-15.54,34.09-8.94,8.13-20.28,12.2-34,12.2-15.29,0-27.66-4.84-37.11-14.52Z"/>
    <path class="cls-1" d="M861.98,208.35v-21.11h24.87v21.11h-24.87ZM861.98,322.23v-105.16h24.87v105.16h-24.87Z"/>
    <path class="cls-1" d="M935.82,323.78c-3.5-.65-6.8-1.58-9.91-2.81-3.11-1.23-5.99-2.74-8.65-4.55-2.66-1.81-5.12-3.9-7.38-6.29-2.27-2.39-4.27-5.04-6.02-7.94-1.75-2.91-3.21-6.03-4.37-9.39-1.17-3.36-2.07-6.97-2.72-10.85-.65-3.87-.97-7.94-.97-12.2s.32-8.33.97-12.2c.65-3.87,1.58-7.49,2.82-10.85,1.23-3.36,2.72-6.49,4.47-9.39,1.75-2.91,3.76-5.58,6.02-8.04,2.27-2.45,4.76-4.58,7.48-6.39,2.72-1.81,5.63-3.36,8.74-4.65,3.11-1.29,6.38-2.26,9.81-2.91,3.43-.64,7.03-.97,10.78-.97s7.09.32,10.4.97c3.3.65,6.44,1.58,9.42,2.81,2.98,1.23,5.8,2.74,8.45,4.55,2.65,1.81,5.12,3.87,7.38,6.2,2.26,2.32,4.28,4.97,6.02,7.94,1.75,2.97,3.24,6.17,4.47,9.59,1.23,3.42,2.17,7.1,2.82,11.04.65,3.94.97,8.17.97,12.69v1.94h-76.56c.39,11.23,2.98,19.85,7.77,25.85,4.79,6,11.08,9.01,18.85,9.01,6.35,0,11.72-2.03,16.13-6.1,4.4-4.07,7.45-10.04,9.13-17.91h23.51c-2.33,13.04-7.81,23.27-16.42,30.7-8.62,7.43-19.46,11.14-32.55,11.14-3.76,0-7.38-.32-10.88-.97ZM930.28,238.66c-4.47,4.33-7.48,10.56-9.04,18.69h50.72c-1.69-8.13-4.73-14.36-9.13-18.69-4.41-4.32-9.78-6.49-16.13-6.49s-11.95,2.16-16.42,6.49Z"/>
    <path class="cls-1" d="M1027.92,316.03c-4.15-4.13-6.22-10.07-6.22-17.82v-62.94h-24.87v-18.2h24.87v-20.92h24.48v20.92h30.9v18.2h-30.9v58.49c0,3.49.97,6.04,2.92,7.65,1.94,1.62,5.05,2.42,9.33,2.42h18.65v18.4h-30.12c-8.55,0-14.9-2.06-19.04-6.2Z"/>
    <path class="cls-1" d="M1092.04,316.13c-6.35-5.23-9.52-12.1-9.52-20.63,0-2.32.26-4.45.78-6.39.52-1.94,1.26-3.78,2.23-5.52.97-1.74,2.14-3.32,3.5-4.74,1.36-1.42,2.88-2.74,4.57-3.97,1.68-1.23,3.5-2.39,5.44-3.49,1.94-1.1,4.01-2.1,6.22-3,2.2-.9,4.47-1.77,6.8-2.61,2.33-.84,4.73-1.65,7.19-2.42,2.46-.77,4.92-1.55,7.38-2.32,8.16-2.45,14.28-4.87,18.36-7.26,4.08-2.39,6.12-5.52,6.12-9.39,0-3.61-1.62-6.55-4.86-8.81-3.24-2.26-7.84-3.39-13.8-3.39-6.74,0-12.27,1.84-16.61,5.52-4.34,3.68-7.09,8.75-8.26,15.2h-22.93c1.55-11.23,6.7-20.4,15.45-27.5,8.74-7.1,19.72-10.65,32.94-10.65s23.77,3.1,31.28,9.3c7.51,6.2,11.27,15.11,11.27,26.73v71.46h-24.48v-11.81c-4.02,4.39-8.91,7.75-14.67,10.07-5.77,2.32-11.95,3.49-18.56,3.49-10.88,0-19.5-2.61-25.84-7.84ZM1111.57,304.02c3.17,2.2,7.42,3.29,12.73,3.29s10.01-.97,14.87-2.9,8.84-4.65,11.95-8.13v-29.05c-2.2,1.81-4.99,3.39-8.36,4.75-3.37,1.36-7.06,2.68-11.08,3.97-7,2.32-12.89,4.75-17.68,7.26-4.79,2.52-7.19,6.36-7.19,11.52,0,4,1.58,7.1,4.76,9.3Z"/>
    <path class="cls-1" d="M1210.77,316.03c-4.15-4.13-6.22-10.07-6.22-17.82v-62.94h-24.87v-18.2h24.87v-20.92h24.48v20.92h30.9v18.2h-30.9v58.49c0,3.49.97,6.04,2.92,7.65,1.94,1.62,5.05,2.42,9.33,2.42h18.65v18.4h-30.12c-8.55,0-14.9-2.06-19.04-6.2Z"/>
    <path class="cls-1" d="M1319.58,311.28c-9.85-8.97-14.83-20.75-14.96-35.34v-1.55h24.68v1.94c.13,8.13,2.82,14.72,8.06,19.75s12.27,7.55,21.08,7.55,15.54-2.48,20.99-7.46c5.44-4.97,8.16-12.3,8.16-21.98v-87.54h25.26v87.15c0,16.27-4.92,28.83-14.77,37.67-9.85,8.85-22.87,13.27-39.06,13.27s-29.6-4.48-39.45-13.46Z"/>
    <path class="cls-1" d="M1436.94,310.12c-9.59-9.75-14.38-23.21-14.38-40.38,0-5.04.42-9.71,1.26-14.04.84-4.32,2.04-8.36,3.59-12.1,1.55-3.74,3.5-7.17,5.83-10.26,2.33-3.1,4.96-5.81,7.87-8.13,2.91-2.32,6.09-4.29,9.52-5.91,3.43-1.61,7.16-2.84,11.17-3.68,4.01-.84,8.22-1.26,12.63-1.26s8.61.42,12.63,1.26c4.01.84,7.77,2.07,11.27,3.68,3.5,1.62,6.7,3.58,9.62,5.91,2.92,2.32,5.54,5.04,7.87,8.13,2.33,3.1,4.27,6.52,5.83,10.26,1.55,3.75,2.75,7.78,3.59,12.1.84,4.33,1.26,9.01,1.26,14.04,0,17.17-4.79,30.63-14.38,40.38-9.59,9.75-22.15,14.62-37.7,14.62s-27.92-4.87-37.5-14.62ZM1494.16,297.15c4.99-6.26,7.48-15.46,7.48-27.6s-2.5-21.17-7.48-27.5c-4.99-6.32-11.56-9.49-19.72-9.49s-14.7,3.17-19.63,9.49c-4.92,6.33-7.38,15.49-7.38,27.5s2.46,21.34,7.38,27.6c4.92,6.26,11.46,9.39,19.63,9.39s14.73-3.13,19.72-9.39Z"/>
    <path class="cls-1" d="M1562.66,322.23l-39.64-105.16h26.23l13.99,40.48,13.8,40.28,13.99-40.28,14.19-40.48h25.07l-39.64,105.16h-27.98Z"/>
    <path class="cls-1" d="M1666.81,323.78c-3.5-.65-6.8-1.58-9.91-2.81-3.11-1.23-5.99-2.74-8.65-4.55-2.66-1.81-5.12-3.9-7.38-6.29-2.27-2.39-4.27-5.04-6.02-7.94-1.75-2.91-3.21-6.03-4.37-9.39-1.17-3.36-2.07-6.97-2.72-10.85-.65-3.87-.97-7.94-.97-12.2s.32-8.33.97-12.2c.65-3.87,1.58-7.49,2.82-10.85,1.23-3.36,2.72-6.49,4.47-9.39,1.75-2.91,3.76-5.58,6.02-8.04,2.27-2.45,4.76-4.58,7.48-6.39,2.72-1.81,5.63-3.36,8.74-4.65,3.11-1.29,6.38-2.26,9.81-2.91,3.43-.64,7.03-.97,10.78-.97s7.09.32,10.4.97c3.3.65,6.44,1.58,9.42,2.81,2.98,1.23,5.8,2.74,8.45,4.55,2.65,1.81,5.12,3.87,7.38,6.2,2.26,2.32,4.28,4.97,6.02,7.94,1.75,2.97,3.24,6.17,4.47,9.59,1.23,3.42,2.17,7.1,2.82,11.04.65,3.94.97,8.17.97,12.69v1.94h-76.56c.39,11.23,2.98,19.85,7.77,25.85,4.79,6,11.08,9.01,18.85,9.01,6.35,0,11.72-2.03,16.13-6.1,4.4-4.07,7.45-10.04,9.13-17.91h23.51c-2.33,13.04-7.81,23.27-16.42,30.7-8.62,7.43-19.46,11.14-32.55,11.14-3.76,0-7.38-.32-10.88-.97ZM1661.27,238.66c-4.47,4.33-7.48,10.56-9.04,18.69h50.72c-1.69-8.13-4.73-14.36-9.13-18.69-4.41-4.32-9.78-6.49-16.13-6.49s-11.95,2.16-16.42,6.49Z"/>
    <path class="cls-1" d="M1736.76,217.07h24.87v12.2c3.62-4.39,8.13-7.87,13.5-10.46,5.37-2.58,11.37-3.87,17.97-3.87,11.27,0,20.31,3.26,27.11,9.78,6.8,6.52,10.2,15.14,10.2,25.85v71.66h-24.68v-67.78c0-6.84-1.98-12.07-5.93-15.69-3.95-3.61-9.1-5.42-15.45-5.42-4.79,0-9.17,1.03-13.12,3.1-3.95,2.07-7.16,4.78-9.62,8.13v77.66h-24.87v-105.16Z"/>
    <path class="cls-1" d="M1865.59,316.03c-4.15-4.13-6.22-10.07-6.22-17.82v-62.94h-24.87v-18.2h24.87v-20.92h24.48v20.92h30.9v18.2h-30.9v58.49c0,3.49.97,6.04,2.92,7.65,1.94,1.62,5.05,2.42,9.33,2.42h18.65v18.4h-30.12c-8.55,0-14.9-2.06-19.04-6.2Z"/>
    <path class="cls-1" d="M1932.82,314.58c-6.87-6.52-10.3-15.14-10.3-25.85v-71.66h24.87v67.78c0,6.85,1.97,12.1,5.93,15.78,3.95,3.68,9.1,5.52,15.45,5.52,4.79,0,9.16-1.07,13.12-3.2,3.95-2.13,7.16-4.87,9.62-8.23v-77.66h24.87v105.16h-24.87v-12.39c-3.63,4.39-8.16,7.91-13.6,10.55-5.44,2.64-11.4,3.97-17.88,3.97-11.27,0-20.34-3.26-27.2-9.78Z"/>
    <path class="cls-1" d="M2055.43,316.03c-4.15-4.13-6.22-10.07-6.22-17.82v-62.94h-24.87v-18.2h24.87v-20.92h24.48v20.92h30.9v18.2h-30.9v58.49c0,3.49.97,6.04,2.92,7.65,1.94,1.62,5.05,2.42,9.33,2.42h18.65v18.4h-30.12c-8.55,0-14.9-2.06-19.04-6.2Z"/>
  </g>
  <g>
    <path class="cls-1" d="M523.31,517.45v-135.57h37.5l15.35,50.74,14.96,50.55,14.96-50.55,15.16-50.74h37.5v135.57h-24.09l.19-66.82.58-43.77-12.82,43.77-19.82,66.82h-24.29l-19.82-66.82-12.83-43.77.58,43.77.19,66.82h-23.32Z"/>
    <path class="cls-1" d="M680.31,509.8c-6.87-6.52-10.3-15.14-10.3-25.85v-71.66h24.87v67.78c0,6.84,1.97,12.1,5.93,15.78,3.95,3.68,9.1,5.52,15.45,5.52,4.79,0,9.16-1.07,13.12-3.2,3.95-2.13,7.16-4.87,9.62-8.23v-77.66h24.87v105.16h-24.87v-12.39c-3.63,4.39-8.16,7.91-13.6,10.55-5.44,2.64-11.4,3.97-17.88,3.97-11.27,0-20.34-3.26-27.2-9.78Z"/>
    <path class="cls-1" d="M788.25,510c-9-6.65-14.41-16.62-16.22-29.92h23.12c1.29,7.49,4.24,13.14,8.84,16.95,4.6,3.81,10.4,5.71,17.39,5.71s12.21-1.23,15.64-3.68c3.43-2.45,5.15-5.55,5.15-9.3,0-4.78-2.4-8.26-7.19-10.46-4.79-2.19-10.49-4.07-17.1-5.62-1.94-.51-3.95-1-6.02-1.45-2.07-.45-4.15-.97-6.22-1.55-2.07-.58-4.11-1.19-6.12-1.84-2.01-.64-3.95-1.32-5.83-2.03-1.88-.71-3.69-1.55-5.44-2.52-1.75-.97-3.37-2-4.86-3.1-1.49-1.1-2.82-2.35-3.98-3.78-1.17-1.42-2.2-2.93-3.11-4.55-.91-1.61-1.59-3.42-2.04-5.42-.46-2-.68-4.16-.68-6.49,0-8.91,3.79-16.33,11.37-22.27,7.58-5.94,17.91-8.91,30.99-8.91s24.55,3.29,33.23,9.88c8.68,6.58,13.99,15.75,15.93,27.5h-22.73c-1.69-6.97-4.76-12.07-9.23-15.3-4.47-3.23-10.14-4.84-17-4.84-6.09,0-10.75,1.13-13.99,3.39-3.24,2.26-4.86,5.01-4.86,8.23,0,4.78,2.69,8.2,8.06,10.26,5.37,2.07,11.62,3.94,18.75,5.62,1.94.52,3.92,1,5.93,1.45,2.01.45,3.98.97,5.93,1.55,1.94.58,3.85,1.19,5.73,1.84,1.88.65,3.72,1.36,5.54,2.13,1.81.77,3.53,1.65,5.15,2.61,1.62.97,3.14,2,4.57,3.1,1.42,1.1,2.69,2.36,3.79,3.78,1.1,1.42,2.04,2.94,2.82,4.55.78,1.62,1.39,3.39,1.85,5.33.45,1.94.68,4.07.68,6.39,0,9.17-3.95,16.92-11.85,23.24-7.9,6.33-18.65,9.49-32.26,9.49s-24.71-3.32-33.71-9.97Z"/>
    <path class="cls-1" d="M875.01,403.58v-21.11h24.87v21.11h-24.87ZM875.01,517.45v-105.16h24.87v105.16h-24.87Z"/>
    <path class="cls-1" d="M923,505.45c-9.46-9.68-14.18-23.17-14.18-40.48,0-5.04.42-9.71,1.26-14.04.84-4.32,2.04-8.36,3.59-12.1,1.55-3.74,3.46-7.17,5.73-10.26,2.26-3.1,4.82-5.81,7.67-8.13,2.85-2.32,6.02-4.29,9.52-5.91,3.5-1.61,7.19-2.84,11.08-3.68,3.89-.84,8.03-1.26,12.44-1.26,13.34,0,24.51,3.91,33.52,11.72,9,7.81,14.35,18.82,16.03,33.02h-23.71c-1.3-8.65-4.25-15.23-8.84-19.75-4.6-4.52-10.27-6.78-17-6.78-7.9,0-14.28,3.17-19.14,9.49-4.86,6.33-7.29,15.49-7.29,27.5s2.43,21.34,7.29,27.6c4.86,6.26,11.24,9.39,19.14,9.39,7,0,12.79-2.39,17.39-7.17,4.6-4.78,7.48-11.75,8.65-20.92h23.51c-1.43,14.59-6.61,25.95-15.54,34.08s-20.28,12.2-34,12.2c-15.29,0-27.66-4.84-37.11-14.53Z"/>
    <path class="cls-1" d="M1024.04,511.35c-6.35-5.23-9.52-12.1-9.52-20.62,0-2.32.26-4.46.78-6.39.52-1.94,1.26-3.78,2.23-5.52s2.14-3.32,3.5-4.75c1.36-1.42,2.88-2.74,4.57-3.97,1.68-1.23,3.5-2.39,5.44-3.49,1.94-1.09,4.01-2.1,6.22-3,2.2-.9,4.47-1.77,6.8-2.61,2.33-.84,4.73-1.65,7.19-2.42,2.46-.77,4.92-1.55,7.38-2.32,8.16-2.45,14.28-4.87,18.36-7.26,4.08-2.39,6.12-5.52,6.12-9.39,0-3.61-1.62-6.55-4.86-8.81-3.24-2.26-7.84-3.39-13.8-3.39-6.74,0-12.27,1.84-16.61,5.52-4.34,3.68-7.09,8.75-8.26,15.2h-22.93c1.55-11.23,6.7-20.4,15.45-27.5,8.74-7.1,19.72-10.65,32.94-10.65s23.77,3.1,31.28,9.3c7.51,6.2,11.27,15.11,11.27,26.73v71.46h-24.48v-11.81c-4.02,4.39-8.91,7.75-14.67,10.07-5.77,2.32-11.95,3.49-18.56,3.49-10.88,0-19.5-2.61-25.84-7.84ZM1043.57,499.25c3.17,2.2,7.42,3.29,12.73,3.29s10.01-.97,14.87-2.91,8.84-4.65,11.95-8.13v-29.05c-2.2,1.81-4.99,3.39-8.36,4.74-3.37,1.36-7.06,2.68-11.08,3.97-7,2.32-12.89,4.74-17.68,7.26-4.79,2.52-7.19,6.36-7.19,11.52,0,4,1.58,7.1,4.76,9.3Z"/>
    <path class="cls-1" d="M1118.67,517.45v-135.57h24.87v135.57h-24.87Z"/>
    <path class="cls-1" d="M1204.94,504.96c-8.42-9.75-12.63-23.08-12.63-39.99s4.24-29.95,12.73-39.9c8.48-9.94,19.46-14.91,32.94-14.91,7.12,0,13.6,1.65,19.43,4.94,5.83,3.29,10.62,7.97,14.38,14.04v-47.25h24.87v135.57h-24.87v-16.66c-3.76,6.07-8.55,10.72-14.38,13.94-5.83,3.23-12.31,4.84-19.43,4.84-13.6,0-24.61-4.87-33.03-14.62ZM1264.21,492.37c5.05-6.26,7.58-15.4,7.58-27.4s-2.53-21.17-7.58-27.5c-5.05-6.32-11.72-9.49-20.01-9.49s-14.7,3.13-19.63,9.39c-4.92,6.26-7.38,15.4-7.38,27.4s2.46,21.18,7.38,27.5c4.92,6.33,11.46,9.49,19.63,9.49s14.96-3.13,20.01-9.39Z"/>
    <path class="cls-1" d="M1306.37,422.36c4.92-.39,8.52-1.9,10.79-4.55,2.26-2.65,3.4-6.55,3.4-11.72h-13.99v-24.21h27.4v22.66c0,9.3-2.5,16.49-7.48,21.59-4.99,5.1-11.69,7.65-20.11,7.65v-11.43Z"/>
    <path class="cls-1" d="M1319,517.45l50.33-135.57h30.9l50.33,135.57h-28.37l-10.88-31.18h-54.8l-10.88,31.18h-26.62ZM1364.86,461.87l-1.75,5.04h41.58l-1.75-5.04-19.04-55.97-19.04,55.97Z"/>
    <path class="cls-1" d="M1456.18,517.45v-135.57h24.87v135.57h-24.87Z"/>
    <path class="cls-1" d="M1492.32,381.89h24.87l-.19,47.06c3.76-6.07,8.55-10.72,14.38-13.94,5.83-3.23,12.37-4.84,19.63-4.84,13.6,0,24.58,4.88,32.94,14.62,8.36,9.75,12.53,23.08,12.53,39.99s-4.21,29.96-12.63,39.9c-8.42,9.94-19.37,14.91-32.84,14.91-7.26,0-13.8-1.62-19.63-4.84-5.83-3.23-10.62-7.87-14.38-13.94v16.66h-24.68v-135.57ZM1564.41,492.37c4.92-6.26,7.38-15.4,7.38-27.4s-2.46-21.17-7.38-27.5c-4.92-6.32-11.53-9.49-19.82-9.49s-14.93,3.17-19.92,9.49c-4.99,6.33-7.48,15.49-7.48,27.5s2.49,21.14,7.48,27.4c4.99,6.26,11.62,9.39,19.92,9.39s14.89-3.13,19.82-9.39Z"/>
    <path class="cls-1" d="M1611.44,511.35c-6.35-5.23-9.52-12.1-9.52-20.62,0-2.32.26-4.46.78-6.39.52-1.94,1.26-3.78,2.23-5.52s2.14-3.32,3.5-4.75c1.36-1.42,2.88-2.74,4.57-3.97,1.68-1.23,3.5-2.39,5.44-3.49,1.94-1.09,4.01-2.1,6.22-3,2.2-.9,4.47-1.77,6.8-2.61,2.33-.84,4.73-1.65,7.19-2.42,2.46-.77,4.92-1.55,7.38-2.32,8.16-2.45,14.28-4.87,18.36-7.26,4.08-2.39,6.12-5.52,6.12-9.39,0-3.61-1.62-6.55-4.86-8.81-3.24-2.26-7.84-3.39-13.8-3.39-6.74,0-12.27,1.84-16.61,5.52-4.34,3.68-7.09,8.75-8.26,15.2h-22.93c1.55-11.23,6.7-20.4,15.45-27.5,8.74-7.1,19.72-10.65,32.94-10.65s23.77,3.1,31.28,9.3c7.51,6.2,11.27,15.11,11.27,26.73v71.46h-24.48v-11.81c-4.02,4.39-8.91,7.75-14.67,10.07-5.77,2.32-11.95,3.49-18.56,3.49-10.88,0-19.5-2.61-25.84-7.84ZM1630.97,499.25c3.17,2.2,7.42,3.29,12.73,3.29s10.01-.97,14.87-2.91,8.84-4.65,11.95-8.13v-29.05c-2.2,1.81-4.99,3.39-8.36,4.74-3.37,1.36-7.06,2.68-11.08,3.97-7,2.32-12.89,4.74-17.68,7.26-4.79,2.52-7.19,6.36-7.19,11.52,0,4,1.58,7.1,4.76,9.3Z"/>
    <path class="cls-1" d="M1706.07,517.45v-135.57h24.87v135.57h-24.87Z"/>
  </g>
</svg>